# xmcd
#
# Track frame offsets:
#	150
#	12834
#	22792
#	39343
#	50057
#	70048
#	82759
#	100290
#	109721
#	121778
#	133547
#	142367
#	152594
#	163954
#	173600
#	182995
#	192113
#	202310
#	215978
#	234019
#
# Disc length: 3249 seconds
#
# Revision: 3
# Processed by: cddbd v1.5.2PL0 Copyright (c) Steve Scherf et al.
# Submitted via: EasyCDDAExtractor 12.0.1.1
#
DISCID=110caf14
DTITLE=Various Artist - The Ultimate Ballroom Album 8 CD1
DYEAR=2005
DGENRE=Dance
TTITLE0=Dean Martin - SF 29 - Ain't That A Kick In The Head
TTITLE1=Nancy Wilson - SF 29 - The Best Is Yet To Come
TTITLE2=Della Reese - SF 29 - Goody Goody
TTITLE3=Julie London - SF 29 - Why Don't You Do Right
TTITLE4=Count Basie - SF 29 - From Russia With Love
TTITLE5=Lena Horne - SF 29 - I Got Rhythm
TTITLE6=Ella Fitzgerald - SF 29 - Begin The Beguine
TTITLE7=Dinah Washington - SF 29 - September In The Rain
TTITLE8=Pegge Lee - SF 29 - The Boy From Ipanema
TTITLE9=Lou Rawls - SF 29 - Summertime
TTITLE10=Lena Horne - QS 50 - Diamonds Are A Girls Best Friend
TTITLE11=Ella Fitzgerald - QS 49 - Something's Gotta Give
TTITLE12=Bobby Darin and Johnny Mercer - QS 49 - East Of The Rockies
TTITLE13=Ted Heath - QS 50 - My Blue Heaven
TTITLE14=Della Reese - QS 49 - Please Don't Talk About Me When I'm Gone
TTITLE15=Bing Crosby - QS 50 - Sentimental Gentleman From Georgia
TTITLE16=Ted Heath - QS 50 - I Won't Dance
TTITLE17=Ella Fitzgerald - QS 49 - Ridin' High
TTITLE18=Dianne Schuur and Count Basie - QS 50 - You Can Have It
TTITLE19=Ted Heath - QS 50 - Wrap Your Troubles In Dreams
EXTD=
EXTT0=
EXTT1=
EXTT2=
EXTT3=
EXTT4=
EXTT5=
EXTT6=
EXTT7=
EXTT8=
EXTT9=
EXTT10=
EXTT11=
EXTT12=
EXTT13=
EXTT14=
EXTT15=
EXTT16=
EXTT17=
EXTT18=
EXTT19=
PLAYORDER=
